<svg width="28" height="28" fill="none" xmlns="http://www.w3.org/2000/svg"><path d="M4 4v20h20V4H4Zm16 7v.375c0 4.125-3.125 8.75-8.75 8.75-1.75 0-3.375-.5-4.75-1.375h.75c1.5 0 2.75-.5 3.875-1.375-1.375 0-2.5-.875-2.875-2.125h.625c.25 0 .5 0 .75-.125-1.375-.25-2.5-1.5-2.5-3 .375.25.875.375 1.375.375C7.625 12 7.125 11 7.125 10c0-.625.125-1.125.375-1.5 1.5 1.875 3.875 3 6.375 3.125 0-.25-.125-.5-.125-.75a3.095 3.095 0 0 1 3.125-3.125c.875 0 1.625.375 2.25 1a5.523 5.523 0 0 0 2-.75c-.25.75-.75 1.375-1.375 1.75.625-.125 1.25-.25 1.75-.5-.375.75-.875 1.25-1.5 1.75Z" fill="#D3A265"/></svg>